<?xml version="1.0" encoding="UTF-8" standalone="no"?>
<svg
   xmlns:dc="http://purl.org/dc/elements/1.1/"
   xmlns:cc="http://creativecommons.org/ns#"
   xmlns:rdf="http://www.w3.org/1999/02/22-rdf-syntax-ns#"
   xmlns:svg="http://www.w3.org/2000/svg"
   xmlns="http://www.w3.org/2000/svg"
   xmlns:sodipodi="http://sodipodi.sourceforge.net/DTD/sodipodi-0.dtd"
   xmlns:inkscape="http://www.inkscape.org/namespaces/inkscape"
   version="1.1"
   x="0px"
   y="0px"
   viewBox="0 0 100 125"
   enable-background="new 0 0 100 100"
   xml:space="preserve"
   id="svg2"
   inkscape:version="0.91 r13725"
   sodipodi:docname="permanote.svg"><metadata
     id="metadata24"><rdf:RDF><cc:Work
         rdf:about=""><dc:format>image/svg+xml</dc:format><dc:type
           rdf:resource="http://purl.org/dc/dcmitype/StillImage" /></cc:Work></rdf:RDF></metadata><defs
     id="defs22"><clipPath
       clipPathUnits="userSpaceOnUse"
       id="clipPath3356"><rect
         style="fill:#0000ff;fill-rule:evenodd;stroke:#000000;stroke-width:1px;stroke-linecap:butt;stroke-linejoin:miter;stroke-opacity:1"
         id="rect3358"
         width="93.220337"
         height="97.987289"
         x="7.4152541"
         y="-1.4210855e-14" /></clipPath></defs><sodipodi:namedview
     pagecolor="#ffffff"
     bordercolor="#666666"
     borderopacity="1"
     objecttolerance="10"
     gridtolerance="10"
     guidetolerance="10"
     inkscape:pageopacity="0"
     inkscape:pageshadow="2"
     inkscape:window-width="2560"
     inkscape:window-height="1376"
     id="namedview20"
     showgrid="false"
     inkscape:zoom="1.888"
     inkscape:cx="67.213983"
     inkscape:cy="62.5"
     inkscape:window-x="0"
     inkscape:window-y="27"
     inkscape:window-maximized="1"
     inkscape:current-layer="svg2" /><g
     id="g4"
     clip-path="url(#clipPath3356)"><g
       id="g6"><path
         d="M89.841,75.115L77.196,11.958c-0.4-2-2.445-3.393-4.637-3.018l-4.274,0.73c-0.976-3.165-3.304-5.176-6.313-5.176    c-3.404,0-6.128,3.024-6.746,7.405l-2.51,0.428c-1.005-3.07-3.3-5.015-6.258-5.015c-3.36,0-6.057,2.944-6.722,7.231l-2.591,0.442    c-1.032-2.976-3.296-4.855-6.2-4.855c-3.315,0-5.988,2.863-6.697,7.057l-1.581,0.27c-1.077,0.184-2.039,0.79-2.638,1.662    c-0.152,0.222-0.274,0.457-0.373,0.698l-3.943,6.264c-0.799,1.082-0.348,3.902-0.111,5.087l11.958,61.139    c0.357,1.784,1.996,3.043,3.81,3.043c0.219,0,0.439-0.019,0.661-0.057l48.042-7.893c1.803-0.296,3.438-1.326,4.483-2.827    l4.455-6.394c0.002-0.003,0.002-0.006,0.004-0.009c0.083-0.098,0.176-0.186,0.249-0.292    C89.828,77.058,90.033,76.075,89.841,75.115z M61.972,6.494c2.025,0,3.579,1.334,4.325,3.515l-8.984,1.534    C57.926,8.526,59.752,6.494,61.972,6.494z M46.458,9.312c1.976,0,3.507,1.266,4.273,3.354l-8.897,1.519    C42.482,11.264,44.281,9.312,46.458,9.312z M30.945,12.13c1.924,0,3.422,1.205,4.207,3.195l-8.79,1.5    C27.042,14.004,28.812,12.13,30.945,12.13z M23.003,19.429l2.015-0.344c0.003,0,0.005,0.002,0.008,0.003    c0.172,0.015,0.331-0.024,0.48-0.086l10.145-1.732c0.069,0.492,0.108,1.009,0.108,1.552c0,0.215-0.021,0.425-0.033,0.638    c-0.478-0.179-0.976-0.286-1.482-0.286c-0.298,0-0.596,0.034-0.885,0.1c-1.058,0.243-1.967,0.921-2.56,1.908    c-0.749,1.248-0.935,2.869-0.51,4.446c0.676,2.509,2.761,4.331,4.959,4.331c0.298,0,0.596-0.034,0.885-0.1    c1.058-0.243,1.967-0.92,2.56-1.907c0.75-1.248,0.936-2.869,0.51-4.448c-0.296-1.099-0.872-2.052-1.6-2.792    c0.092-0.617,0.157-1.245,0.157-1.89c0-0.657-0.048-1.287-0.137-1.889l13.566-2.316c0.054,0.442,0.084,0.904,0.084,1.386    c0,0.215-0.021,0.426-0.033,0.638c-0.478-0.179-0.976-0.286-1.482-0.286c-0.298,0-0.596,0.034-0.885,0.1    c-1.058,0.243-1.967,0.92-2.56,1.907c-0.75,1.248-0.936,2.869-0.51,4.448c0.676,2.509,2.761,4.33,4.959,4.33    c0.299,0,0.596-0.034,0.885-0.1c1.059-0.243,1.968-0.92,2.561-1.907c0.749-1.248,0.935-2.869,0.51-4.448    c-0.296-1.099-0.873-2.051-1.6-2.791c0.092-0.617,0.157-1.246,0.157-1.891c0-0.597-0.042-1.17-0.115-1.722l13.56-2.315    c0.042,0.392,0.068,0.796,0.068,1.219c0,0.215-0.021,0.426-0.033,0.638c-0.478-0.179-0.976-0.286-1.481-0.286    c-0.299,0-0.597,0.034-0.886,0.1c-1.058,0.243-1.967,0.92-2.56,1.906c-0.749,1.248-0.936,2.869-0.511,4.448    c0.677,2.509,2.762,4.33,4.959,4.33c0.299,0,0.597-0.034,0.886-0.1c1.059-0.243,1.968-0.92,2.56-1.907    c0.75-1.248,0.936-2.869,0.511-4.447c-0.296-1.099-0.873-2.052-1.601-2.792c0.092-0.617,0.157-1.245,0.157-1.89    c0-0.538-0.038-1.054-0.098-1.555l4.208-0.718c0.125-0.021,0.249-0.032,0.371-0.032c0.954,0,1.801,0.632,1.969,1.47L87.88,75.508    c0.085,0.426-0.009,0.866-0.266,1.239c-0.295,0.43-0.778,0.73-1.326,0.824l-49.894,8.517c-1.095,0.181-2.15-0.493-2.339-1.439    L21.411,21.492c-0.054-0.267-0.028-0.539,0.055-0.797l0.465-0.74C22.218,19.685,22.592,19.499,23.003,19.429z M37.271,24.024    c0.285,1.057,0.178,2.113-0.293,2.898c-0.22,0.365-0.622,0.833-1.293,0.987c-0.644,0.149-1.33-0.066-1.932-0.509    c1.402-0.898,2.509-2.386,3.201-4.192C37.081,23.466,37.194,23.736,37.271,24.024z M32.565,25.799    c-0.025,0.015-0.039,0.04-0.062,0.057c-0.113-0.238-0.212-0.485-0.283-0.748c-0.285-1.056-0.178-2.112,0.293-2.896    c0.22-0.366,0.622-0.834,1.293-0.988c0.143-0.033,0.29-0.049,0.438-0.049c0.394,0,0.786,0.126,1.158,0.331    C34.898,23.414,33.888,25.01,32.565,25.799z M52.784,21.207c0.285,1.057,0.178,2.113-0.293,2.897    c-0.22,0.365-0.622,0.833-1.293,0.987c-0.644,0.147-1.33-0.067-1.932-0.51c1.402-0.898,2.508-2.385,3.2-4.19    C52.594,20.649,52.707,20.918,52.784,21.207z M48.079,22.981c-0.025,0.015-0.039,0.04-0.062,0.057    c-0.113-0.238-0.213-0.485-0.283-0.748c-0.285-1.057-0.178-2.113,0.293-2.897c0.22-0.365,0.622-0.833,1.293-0.987    c0.142-0.033,0.289-0.049,0.437-0.049c0.394,0,0.786,0.126,1.158,0.332C50.411,20.596,49.401,22.192,48.079,22.981z     M68.298,18.388c0.285,1.057,0.178,2.113-0.293,2.897c-0.22,0.366-0.622,0.833-1.293,0.988c-0.642,0.149-1.329-0.066-1.932-0.51    c1.402-0.898,2.508-2.385,3.2-4.191C68.107,17.831,68.22,18.1,68.298,18.388z M63.592,20.163c-0.025,0.015-0.039,0.04-0.062,0.057    c-0.113-0.238-0.213-0.485-0.283-0.747c-0.284-1.057-0.178-2.113,0.294-2.898c0.22-0.365,0.622-0.833,1.292-0.987    c0.143-0.033,0.29-0.049,0.438-0.049c0.394,0,0.786,0.126,1.157,0.331C65.924,17.778,64.915,19.373,63.592,20.163z M82.914,83.431    c-0.739,1.06-1.894,1.788-3.167,1.997L31.7,93.322c-0.998,0.161-1.994-0.475-2.179-1.403L17.563,30.781    c-0.274-1.374-0.386-3.086-0.234-3.52c0.018-0.023,0.034-0.047,0.049-0.071l2.378-3.778l12.339,61.629    c0.356,1.783,2.009,3.078,3.929,3.078c0.233,0,0.47-0.02,0.708-0.061l48.758-8.323L82.914,83.431z"
         id="path8" /><path
         d="M34.438,46.638c0.056,0,0.112-0.004,0.169-0.014l36.669-6.26c0.545-0.093,0.911-0.61,0.817-1.154    c-0.093-0.544-0.605-0.911-1.153-0.817l-36.67,6.26c-0.544,0.093-0.91,0.61-0.817,1.154    C33.536,46.294,33.959,46.638,34.438,46.638z"
         id="path10" /><path
         d="M36.746,58.798c0.083,0.487,0.506,0.832,0.985,0.832c0.056,0,0.112-0.005,0.169-0.015l36.669-6.26    c0.545-0.093,0.911-0.609,0.817-1.153c-0.093-0.544-0.609-0.91-1.153-0.817l-36.67,6.26    C37.019,57.737,36.653,58.254,36.746,58.798z"
         id="path12" /><path
         d="M39.572,72.484c0.083,0.487,0.506,0.832,0.985,0.832c0.056,0,0.112-0.005,0.169-0.015l36.669-6.26    c0.545-0.093,0.911-0.609,0.817-1.153c-0.093-0.544-0.61-0.909-1.153-0.817l-36.67,6.26C39.845,71.424,39.479,71.94,39.572,72.484    z"
         id="path14" /></g></g></svg>